<?xml version="1.0" encoding="utf-8"?>
<!DOCTYPE svg PUBLIC "-//W3C//DTD SVG 1.1//EN" "http://www.w3.org/Graphics/SVG/1.1/DTD/svg11.dtd">
<svg version="1.1" width="362.0" height="362.0" viewBox="0.0000 0.0000 64.0000 64.0000" xmlns="http://www.w3.org/2000/svg" xmlns:xlink="http://www.w3.org/1999/xlink"><desc id="GridAndSnap" width="720.0" height="561.0">0 10.000 0 -17.680 -8.486 72.000 Generated by jp.ac.soka.unemi.TUDraw 1.0a4</desc><g><path d="M6.184,30.196L31.696,4.814C36.424,0.087 41.918,0.021 46.681,4.784L59.631,17.735C64.378,22.481 64.378,28.073 59.631,32.819L34.216,58.234C29.876,62.574 22.966,64.819 16.382,58.234L6.181,48.034C-0.404,41.449 1.841,34.539 6.184,30.196M12.417,43.799L20.930,52.316C24.007,55.399 29.277,53.685 30.819,52.140L53.207,29.730C55.589,27.344 55.589,23.074 53.560,21.042L43.304,10.777C41.440,8.908 37.250,8.959 34.882,11.330L12.420,33.715C10.875,35.263 9.163,40.539 12.417,43.799" fill="#FEFFFE" fill-opacity="0.750" stroke="none" stroke-width="1.000"></path><path d="M12.417,43.799L20.930,52.316C24.007,55.399 29.277,53.685 30.819,52.140L53.207,29.730C55.589,27.344 55.589,23.074 53.560,21.042L43.304,10.777C41.440,8.908 37.250,8.959 34.882,11.330L12.420,33.715C10.875,35.263 9.163,40.539 12.417,43.799" fill="#FEFEFE" fill-opacity="0.400" stroke="none" stroke-width="1.000"></path><path d="M34.027,7.150C37.807,3.371 40.567,3.338 44.347,7.118L57.298,20.068C61.078,23.848 61.078,26.706 57.298,30.486L31.883,55.901C28.103,59.681 23.870,61.056 18.715,55.901L8.515,45.700C3.360,40.545 4.735,36.313 8.515,32.533ZM36.847,50.936L13.490,27.579" fill="none" stroke="#000000" stroke-opacity="0.750" stroke-width="3.000"></path></g></svg>