<?xml version="1.0" encoding="utf-8"?>
<!DOCTYPE svg PUBLIC "-//W3C//DTD SVG 1.1//EN" "http://www.w3.org/Graphics/SVG/1.1/DTD/svg11.dtd">
<svg version="1.1" width="1280.0" height="200.0" viewBox="0.0000 0.0000 640.0000 100.0000" xmlns="http://www.w3.org/2000/svg" xmlns:xlink="http://www.w3.org/1999/xlink"><desc>Generated by jp.ac.soka.unemi.TUDraw 1.0a4</desc><g><path d="M84.711,92.156C78.084,92.156 72.711,86.784 72.711,80.156L72.711,68.223L50.463,75.687L50.463,36.240L72.711,43.410L72.711,34.078C72.711,27.451 78.084,22.078 84.711,22.078L118.403,22.078C125.030,22.078 130.403,27.451 130.403,34.078L130.403,80.156C130.403,86.784 125.030,92.156 118.403,92.156Z" fill="none" stroke="#000000" stroke-width="1.000"></path><text x="52.943" y="43.266" font-family="Helvetica" font-size="21.0" fill="#000000"><tspan x="52.943" y="63.266">Camera</tspan></text><g><path d="M1.000,57.017L33.619,57.154" fill="none" stroke="#000000" stroke-width="9.000"></path><polygon points="49.819,57.222 22.116,68.561 22.212,45.651" fill="#000000"></polygon></g><text x="2.205" y="14.168" font-family="Helvetica" font-size="21.0" fill="#000000"><tspan x="2.205" y="34.168">Ir light</tspan></text><path d="M540.154,92.156C546.782,92.156 552.154,86.784 552.154,80.156L552.154,68.223L574.403,68.223L574.403,43.410L552.154,43.410L552.154,34.078C552.154,27.451 546.782,22.078 540.154,22.078L491.463,22.078C484.836,22.078 479.463,27.451 479.463,34.078L479.463,80.156C479.463,86.784 484.836,92.156 491.463,92.156Z" fill="none" stroke="#000000" stroke-width="1.000"></path><text x="484.161" y="43.277" font-family="Helvetica" font-size="21.0" fill="#000000"><tspan x="484.161" y="63.277">Projector</tspan></text><g><path d="M581.000,57.010L623.619,57.147" fill="none" stroke="#000000" stroke-width="9.000"></path><polygon points="639.819,57.199 612.127,68.565 612.201,45.655" fill="#000000"></polygon></g><text x="583.705" y="14.168" font-family="Helvetica" font-size="21.0" fill="#000000"><tspan x="583.705" y="34.168">Light</tspan></text><path d="M363.035,15.203L435.149,15.203C441.776,15.203 447.149,20.576 447.149,27.203L447.149,87.031C447.149,93.659 441.776,99.031 435.149,99.031L176.990,99.031C170.363,99.031 164.990,93.659 164.990,87.031L164.990,27.203C164.990,20.576 170.363,15.203 176.990,15.203L255.735,15.203" fill="none" stroke="#000000" stroke-width="1.000"></path><path d="M191.674,83.844C185.047,83.844 179.674,78.471 179.674,71.844L179.674,42.391C179.674,35.763 185.047,30.391 191.674,30.391L273.801,30.391C280.428,30.391 285.801,35.763 285.801,42.391L285.801,71.844C285.801,78.471 280.428,83.844 273.801,83.844Z" fill="none" stroke="#000000" stroke-width="1.000"></path><g><path d="M130.420,57.017L163.039,57.154" fill="none" stroke="#000000" stroke-width="9.000"></path><polygon points="179.239,57.222 151.536,68.561 151.632,45.651" fill="#000000"></polygon></g><path d="M337.674,83.844C331.047,83.844 325.674,78.471 325.674,71.844L325.674,42.391C325.674,35.763 331.047,30.391 337.674,30.391L419.801,30.391C426.428,30.391 431.801,35.763 431.801,42.391L431.801,71.844C431.801,78.471 426.428,83.844 419.801,83.844Z" fill="none" stroke="#000000" stroke-width="1.000"></path><g><path d="M431.420,57.017L464.039,57.154" fill="none" stroke="#000000" stroke-width="9.000"></path><polygon points="480.239,57.222 452.536,68.561 452.632,45.651" fill="#000000"></polygon></g><g><path d="M281.920,57.017L314.539,57.154" fill="none" stroke="#000000" stroke-width="9.000"></path><polygon points="330.739,57.222 303.036,68.561 303.132,45.651" fill="#000000"></polygon></g><text x="195.990" y="43.779" font-family="Helvetica" font-size="21.0" fill="#000000"><tspan x="195.990" y="63.779">Tracker</tspan></text><text x="343.412" y="42.857" font-family="Helvetica" font-size="21.0" fill="#000000"><tspan x="343.412" y="62.857">DT5mC</tspan></text><text x="262.060" y="0.246" font-family="Helvetica" font-size="21.0" fill="#000000"><tspan x="262.060" y="20.246">Computer</tspan></text></g></svg>