<?xml version="1.0" encoding="utf-8"?>
<!DOCTYPE svg PUBLIC "-//W3C//DTD SVG 1.1//EN" "http://www.w3.org/Graphics/SVG/1.1/DTD/svg11.dtd">
<svg version="1.1" width="620.0" height="386.9" viewBox="0.0000 0.0000 619.9800 386.9000" xmlns="http://www.w3.org/2000/svg" xmlns:xlink="http://www.w3.org/1999/xlink"><desc>Generated by jp.ac.soka.unemi.TUDraw 1.0a4</desc><g><path d="M307.477,386.383L307.477,358.723L619.484,358.723L619.484,386.383C619.484,386.383 250.148,386.418 241.477,386.383C156.809,386.055 76.141,379.391 4.141,329.391" fill="none" stroke="#000000" stroke-width="1.000"></path><path d="M553.465,87.629L553.465,358.289" fill="none" stroke="#000000" stroke-width="1.000"></path><path d="M205.949,79.919L189.127,62.105L198.216,53.522L215.037,71.337ZM210.756,80.057L208.531,77.701L212.676,73.789L214.899,76.149Z" fill="none" stroke="#000000" stroke-width="1.000"></path><path d="M553.465,316.938L212.242,78.318L361.669,358.723" fill="none" stroke="#000000" stroke-width="0.500"></path><path d="M204.059,98.371L190.398,84.090L199.070,75.793L212.730,90.078Z" fill="none" stroke="#000000" stroke-width="1.000"></path><path d="M216.633,97.441L215.812,98.223L210.328,92.488L206.570,96.078L212.059,101.816L211.238,102.598L213.926,105.410L219.320,100.250Z" fill="#000000" stroke="none"></path><path d="M552.797,357.723L216.477,102.398L313.805,358.289" fill="none" stroke="#000000" stroke-width="0.500"></path><path d="M187.496,82.812L187.496,112.633L156.789,112.633L156.789,38.594" fill="none" stroke="#000000" stroke-width="1.000"></path><path d="M198.309,92.723L187.496,101.039L187.496,92.223L194.559,88.723Z" fill="#000000" stroke="none"></path><path d="M0.074,0.488C30.496,5.031 27.543,24.812 57.969,29.352C88.406,33.895 91.359,14.117 121.797,18.660C152.168,23.191 149.215,42.973 179.590,47.508C210.062,52.055 213.016,32.273 243.488,36.824C273.602,41.316 270.648,61.098 300.758,65.594" fill="none" stroke="#000000" stroke-width="1.000"></path><path d="M300.801,118.723L300.801,9.391L619.180,9.391L619.180,358.477" fill="none" stroke="#000000" stroke-width="1.000"></path><text x="212.633" y="48.570" font-family="Helvetica" font-size="21.0" fill="#000000"><tspan x="212.633" y="64.570">Projector</tspan></text><text x="133.714" y="123.906" font-family="Helvetica" font-size="21.0" fill="#000000"><tspan x="133.714" y="139.906">Camera</tspan></text><text x="453.434" y="156.025" font-family="Helvetica" font-size="21.0" fill="#000000"><tspan x="453.434" y="172.025">Backdrop</tspan></text><text x="421.147" y="358.466" font-family="Helvetica" font-size="21.0" fill="#000000"><tspan x="421.147" y="374.466">Stage</tspan></text><text x="85.576" y="297.465" font-family="Helvetica" font-size="21.0" fill="#000000"><tspan x="85.576" y="313.465">Audience</tspan></text><path d="M422.445,320.715C425.840,320.438 429.156,318.699 432.355,317.746C433.922,317.277 435.414,316.320 436.969,315.723C438.762,315.031 440.680,314.410 442.531,313.945C442.457,313.828 442.395,313.699 442.352,313.617C443.375,313.156 449.523,309.773 449.195,312.215C449.035,313.406 446.805,314.516 445.691,314.848C444.344,315.246 443.094,315.887 441.793,316.434C438.273,317.914 435.141,320.172 431.566,321.473C429.516,322.219 427.324,323.145 425.559,324.211C424.293,324.977 423.023,325.219 422.062,326.434C420.469,328.441 420.352,331.484 420.066,333.945C419.934,335.074 420.152,336.238 420.195,337.332C420.242,338.625 419.945,339.895 420.070,341.215C420.203,342.645 420.926,343.742 421.289,345.125C421.641,346.453 421.395,347.742 421.570,349.098C421.730,350.355 422.484,351.004 423.039,352.004C423.648,353.105 423.141,353.754 423.188,354.973C423.219,355.832 423.938,357.195 422.570,357.625C421.531,357.949 421.488,356.785 421.289,355.875C421.047,354.758 420.852,353.852 420.230,352.836C419.625,351.844 419.484,350.707 419.160,349.594C418.828,348.449 418.676,346.668 418.070,345.738C417.664,345.117 417.227,345.031 416.973,344.207C416.785,343.598 416.965,342.816 416.844,342.180C416.363,339.621 415.055,336.934 415.070,334.441C415.078,332.594 415.531,330.871 415.445,329.055C415.367,327.418 414.645,327.277 413.723,326.066C413.016,325.141 412.723,324.078 412.324,322.973C411.910,321.816 411.168,320.914 410.785,319.852C410.324,318.578 410.742,317.281 410.441,315.930C410.129,314.523 409.230,314.793 407.914,314.715C405.477,314.566 402.863,314.492 400.449,314.715C399.191,314.832 396.512,314.730 397.871,312.738C397.836,312.789 398.742,312.219 398.789,312.188C399.051,312.020 398.871,311.785 399.320,311.590C399.961,311.312 401.504,311.590 402.102,311.680C403.109,311.836 404.387,312.223 405.383,311.562C406.160,311.043 406.016,310.641 407.062,310.465C408.559,310.215 410.164,310.762 411.547,310.191C411.512,308.746 409.926,307.531 410.246,306.117C410.281,305.957 411.090,304.035 411.219,303.871C411.773,303.164 412.457,303.340 413.320,303.340C415.156,303.340 416.227,304.020 416.320,305.965C416.395,307.566 415.438,309.105 415.711,310.570L415.633,310.527C415.668,311.512 417.102,310.984 417.320,310.277L417.320,310.465C417.594,308.879 418.086,307.312 418.070,305.465C418.051,303.746 417.875,302.047 417.820,300.328C417.781,299.219 417.422,298.512 417.223,297.469C416.883,295.691 416.645,293.906 416.223,292.180C415.902,290.875 414.336,289.613 414.445,288.215C414.582,286.383 416.543,288.473 416.867,288.934C417.570,289.926 418.059,290.801 418.402,291.965C418.801,293.328 419.266,294.562 419.625,295.969C419.949,297.238 420.648,298.453 420.871,299.719C421.344,302.367 420.617,305.316 420.617,308.000C420.617,310.484 421.496,312.809 419.812,314.684C419.738,314.770 419.246,314.777 419.168,314.840L419.059,314.734C418.941,317.371 420.172,320.906 423.195,320.590" fill="none" stroke="#000000" stroke-width="1.000"></path><text x="347.839" y="277.131" font-family="Helvetica" font-size="21.0" fill="#000000"><tspan x="347.839" y="293.131">Dancer</tspan></text><path d="M218.480,359.668C218.480,359.668 220.191,356.629 222.879,358.105C225.570,359.578 227.145,370.980 227.145,370.980C227.145,370.980 239.324,368.457 240.578,370.980C241.828,373.500 240.578,377.746 240.578,377.746L224.754,377.746ZM228.141,345.055C228.199,346.957 226.801,348.758 226.469,350.621C225.984,353.324 226.141,356.312 226.141,359.082C226.141,361.309 226.117,363.020 226.875,365.055C227.863,367.703 227.223,368.645 229.477,369.391C232.824,370.500 238.477,366.055 242.477,372.723C243.605,374.609 241.777,377.551 243.141,379.055C244.180,380.203 250.484,379.965 251.758,379.672C251.867,379.180 251.867,378.598 251.758,378.105C251.215,378.219 250.402,377.895 249.859,378.004C249.855,375.617 248.160,373.152 247.809,370.723C247.273,367.023 247.250,366.492 243.812,365.379C240.922,364.438 237.008,364.867 235.551,362.055C234.688,360.387 234.793,357.715 234.059,355.797C233.090,353.266 232.488,351.562 232.457,348.703C232.441,346.984 232.992,344.262 232.082,342.547C231.336,341.129 228.047,338.793 226.379,340.289C224.492,341.980 226.844,345.395 229.141,345.055" fill="none" stroke="#000000" stroke-width="1.000"></path><path d="M185.758,359.336C185.758,359.336 187.469,356.297 190.156,357.770C192.852,359.242 194.422,370.645 194.422,370.645C194.422,370.645 206.602,368.125 207.855,370.645C209.105,373.168 207.855,377.410 207.855,377.410L192.031,377.410ZM195.418,344.723C195.477,346.621 194.078,348.426 193.746,350.289C193.262,352.988 193.418,355.977 193.422,358.746C193.422,360.977 193.395,362.684 194.152,364.719C195.141,367.367 194.500,368.309 196.754,369.055C200.105,370.164 205.754,365.723 209.754,372.387C210.887,374.277 209.055,377.219 210.418,378.723C211.457,379.867 217.766,379.633 219.035,379.340C219.145,378.848 219.145,378.266 219.035,377.773C218.492,377.883 217.684,377.562 217.137,377.672C217.133,375.285 215.438,372.820 215.086,370.387C214.551,366.691 214.527,366.160 211.094,365.043C208.199,364.102 204.285,364.535 202.828,361.719C201.965,360.055 202.070,357.383 201.336,355.465C200.367,352.934 199.766,351.227 199.734,348.371C199.719,346.652 200.270,343.930 199.359,342.211C198.613,340.793 195.324,338.461 193.656,339.957C191.773,341.645 194.121,345.059 196.418,344.723" fill="none" stroke="#000000" stroke-width="1.000"></path><path d="M154.219,357.363C154.219,357.363 155.926,354.324 158.617,355.797C161.309,357.270 162.883,368.672 162.883,368.672C162.883,368.672 175.062,366.152 176.312,368.672C177.562,371.195 176.312,375.438 176.312,375.438L160.488,375.438ZM163.879,342.746C163.934,344.652 162.535,346.453 162.203,348.316C161.719,351.016 161.875,354.004 161.879,356.773C161.879,359.004 161.852,360.711 162.609,362.746C163.598,365.395 162.961,366.336 165.211,367.082C168.562,368.191 174.211,363.746 178.211,370.414C179.344,372.305 177.516,375.246 178.879,376.746C179.918,377.895 186.223,377.660 187.492,377.367C187.605,376.871 187.602,376.293 187.492,375.797C186.949,375.910 186.141,375.590 185.594,375.699C185.590,373.312 183.895,370.848 183.543,368.414C183.008,364.719 182.988,364.188 179.551,363.070C176.656,362.129 172.746,362.562 171.285,359.746C170.422,358.082 170.527,355.410 169.793,353.492C168.824,350.961 168.223,349.254 168.195,346.398C168.176,344.680 168.727,341.957 167.820,340.238C167.070,338.820 163.781,336.488 162.113,337.984C160.230,339.672 162.578,343.086 164.879,342.746" fill="none" stroke="#000000" stroke-width="1.000"></path><path d="M123.480,353.402C123.480,353.402 125.191,350.363 127.883,351.836C130.570,353.309 132.145,364.711 132.145,364.711C132.145,364.711 144.324,362.191 145.578,364.711C146.828,367.234 145.578,371.477 145.578,371.477L129.754,371.477ZM133.141,338.785C133.199,340.688 131.801,342.492 131.469,344.355C130.984,347.055 131.141,350.043 131.145,352.812C131.145,355.039 131.117,356.750 131.875,358.785C132.863,361.434 132.223,362.375 134.477,363.121C137.828,364.230 143.477,359.785 147.477,366.453C148.609,368.340 146.777,371.281 148.145,372.785C149.184,373.934 155.484,373.695 156.758,373.406C156.867,372.910 156.867,372.332 156.758,371.836C156.215,371.949 155.406,371.625 154.859,371.734C154.855,369.348 153.160,366.887 152.809,364.453C152.273,360.758 152.254,360.227 148.816,359.109C145.922,358.168 142.008,358.598 140.551,355.785C139.688,354.117 139.793,351.445 139.059,349.527C138.090,346.996 137.488,345.293 137.461,342.438C137.441,340.715 137.992,337.996 137.086,336.277C136.336,334.859 133.047,332.523 131.379,334.023C129.496,335.711 131.844,339.125 134.145,338.785" fill="none" stroke="#000000" stroke-width="1.000"></path><path d="M93.180,347.102C93.180,347.102 94.891,344.062 97.582,345.535C100.270,347.008 101.844,358.410 101.844,358.410C101.844,358.410 114.023,355.891 115.277,358.410C116.527,360.934 115.277,365.176 115.277,365.176L99.453,365.176ZM102.840,332.488C102.898,334.391 101.500,336.191 101.168,338.055C100.684,340.754 100.840,343.742 100.840,346.512C100.840,348.742 100.816,350.453 101.574,352.484C102.562,355.133 101.922,356.078 104.176,356.820C107.527,357.930 113.176,353.488 117.176,360.152C118.309,362.039 116.477,364.984 117.840,366.488C118.879,367.633 125.188,367.398 126.457,367.105C126.566,366.613 126.566,366.031 126.457,365.535C125.914,365.648 125.105,365.328 124.559,365.438C124.555,363.047 122.859,360.586 122.508,358.152C121.973,354.457 121.949,353.926 118.516,352.809C115.621,351.867 111.707,352.297 110.250,349.484C109.387,347.820 109.492,345.148 108.758,343.230C107.789,340.699 107.188,338.992 107.156,336.137C107.141,334.414 107.691,331.695 106.781,329.977C106.035,328.559 102.746,326.227 101.078,327.723C99.195,329.410 101.543,332.828 103.840,332.488" fill="none" stroke="#000000" stroke-width="1.000"></path><path d="M62.941,338.113C62.941,338.113 64.648,335.074 67.340,336.547C70.031,338.020 71.605,349.422 71.605,349.422C71.605,349.422 83.785,346.902 85.035,349.422C86.289,351.945 85.035,356.188 85.035,356.188L69.215,356.188ZM72.602,323.496C72.656,325.398 71.262,327.203 70.926,329.066C70.441,331.766 70.602,334.754 70.602,337.523C70.602,339.754 70.574,341.461 71.336,343.496C72.320,346.145 71.684,347.086 73.934,347.832C77.285,348.941 82.934,344.496 86.934,351.164C88.066,353.051 86.238,355.992 87.602,357.496C88.641,358.645 94.945,358.406 96.215,358.117C96.328,357.621 96.324,357.039 96.219,356.547C95.672,356.660 94.863,356.336 94.316,356.445C94.312,354.059 92.617,351.598 92.266,349.164C91.730,345.469 91.711,344.938 88.273,343.820C85.379,342.879 81.469,343.309 80.008,340.496C79.145,338.828 79.254,336.156 78.520,334.238C77.547,331.711 76.945,330.004 76.918,327.148C76.898,325.426 77.449,322.707 76.543,320.988C75.793,319.570 72.508,317.234 70.836,318.734C68.953,320.422 71.301,323.836 73.602,323.496" fill="none" stroke="#000000" stroke-width="1.000"></path><path d="M32.387,326.086C32.387,326.086 34.094,323.043 36.785,324.520C39.477,325.992 41.051,337.395 41.051,337.395C41.051,337.395 53.230,334.871 54.480,337.395C55.734,339.914 54.480,344.160 54.480,344.160L38.660,344.160ZM42.047,311.469C42.102,313.371 40.707,315.172 40.371,317.035C39.891,319.738 40.047,322.727 40.047,325.496C40.047,327.727 40.020,329.434 40.781,331.469C41.770,334.117 41.129,335.059 43.379,335.805C46.730,336.914 52.379,332.469 56.379,339.137C57.512,341.023 55.684,343.965 57.047,345.469C58.086,346.617 64.391,346.379 65.664,346.090C65.773,345.594 65.770,345.016 65.664,344.520C65.117,344.633 64.309,344.309 63.766,344.418C63.758,342.031 62.066,339.570 61.715,337.137C61.180,333.441 61.156,332.910 57.719,331.793C54.828,330.852 50.914,331.281 49.457,328.469C48.594,326.801 48.699,324.129 47.965,322.211C46.996,319.684 46.395,317.977 46.363,315.121C46.344,313.398 46.898,310.680 45.988,308.961C45.238,307.543 41.953,305.207 40.281,306.707C38.398,308.395 40.746,311.809 43.047,311.469" fill="none" stroke="#000000" stroke-width="1.000"></path><path d="M1.148,310.668C1.148,310.668 2.855,307.629 5.547,309.105C8.238,310.578 9.812,321.980 9.812,321.980C9.812,321.980 21.992,319.457 23.242,321.980C24.496,324.500 23.242,328.742 23.242,328.742L7.422,328.742ZM10.809,296.055C10.863,297.957 9.469,299.758 9.133,301.621C8.648,304.324 8.809,307.312 8.809,310.082C8.809,312.309 8.781,314.020 9.543,316.055C10.531,318.703 9.891,319.645 12.141,320.391C15.492,321.500 21.141,317.055 25.141,323.723C26.273,325.609 24.445,328.551 25.809,330.055C26.848,331.203 33.152,330.965 34.422,330.672C34.535,330.180 34.531,329.598 34.426,329.105C33.879,329.219 33.070,328.895 32.527,329.004C32.520,326.617 30.828,324.152 30.473,321.723C29.938,318.023 29.918,317.492 26.480,316.379C23.586,315.438 19.676,315.867 18.219,313.055C17.352,311.387 17.461,308.715 16.727,306.797C15.758,304.266 15.156,302.562 15.125,299.703C15.105,297.984 15.656,295.262 14.750,293.547C14.000,292.129 10.715,289.793 9.043,291.289C7.160,292.980 9.508,296.395 11.809,296.055" fill="none" stroke="#000000" stroke-width="1.000"></path><path d="M175.059,62.723C175.059,60.312 174.605,59.164 176.754,57.961C177.977,57.273 180.598,56.754 181.820,57.758C184.102,59.633 182.988,64.270 181.738,66.164C180.059,68.727 180.156,70.582 180.629,73.777C181.086,76.883 181.832,79.797 182.227,82.938C182.504,85.160 184.398,88.434 182.387,90.133C181.605,89.500 181.328,88.293 180.547,87.734C179.320,91.160 180.629,96.770 180.801,100.473C180.906,102.645 181.590,104.836 181.809,106.723C181.941,107.875 181.758,108.832 182.121,109.914C182.453,110.895 183.355,110.883 183.270,112.184C181.180,112.383 178.934,112.070 176.848,111.934C176.879,111.152 176.711,110.277 176.762,109.496C175.742,110.020 174.887,111.062 173.801,111.426C172.523,111.848 171.445,111.340 170.098,111.434C169.797,109.328 171.051,107.297 171.562,105.289C172.375,102.117 173.051,98.902 173.309,95.652C173.578,92.211 174.000,88.152 173.809,84.723C171.754,84.582 170.961,77.379 171.059,75.480C171.172,73.281 171.293,70.961 172.301,68.891C173.059,67.328 173.727,64.301 175.059,63.223Z" fill="none" stroke="#000000" stroke-width="1.000"></path><text x="67.814" y="53.547" font-family="Helvetica" font-size="21.0" fill="#000000"><tspan x="67.814" y="69.547">Operator</tspan></text></g></svg>