<?xml version="1.0" encoding="utf-8"?>
<!DOCTYPE svg PUBLIC "-//W3C//DTD SVG 1.1//EN" "http://www.w3.org/Graphics/SVG/1.1/DTD/svg11.dtd">
<svg version="1.1" width="512.0" height="512.0" viewBox="0.0000 0.0000 64.0000 64.0000" xmlns="http://www.w3.org/2000/svg" xmlns:xlink="http://www.w3.org/1999/xlink"><desc id="GridAndSnap" width="720.0" height="561.0">0 10.000 4 -12.375 2.250 72.000 Generated by jp.ac.soka.unemi.TUDraw 1.0a4</desc><g><path d="M19.865,34.482C22.377,26.120 43.420,9.284 47.226,5.783C50.544,2.731 56.114,-0.635 59.296,2.761C62.478,6.158 61.412,11.187 59.018,14.165C54.422,19.883 42.443,40.752 30.934,46.771ZM10.312,43.554C11.529,37.279 14.545,34.283 19.865,34.482L30.934,46.771C31.709,53.999 27.692,59.349 20.732,60.592C12.534,62.057 5.036,53.928 1.344,49.924C3.220,48.785 9.180,49.388 10.312,43.554" fill="#FEFFFE" fill-opacity="0.750" stroke="none" stroke-width="1.000"></path><path d="M29.702,24.548C29.702,24.548 45.276,10.187 48.093,7.459C50.911,4.731 55.342,1.941 57.838,4.623C60.334,7.305 59.097,11.054 57.105,13.706C55.113,16.358 40.436,36.739 40.436,36.739C40.436,36.739 38.385,30.921 35.593,28.122C33.345,25.868 29.702,24.548 29.702,24.548M21.359,33.647C22.635,32.129 24.848,28.992 27.052,26.721C29.397,27.415 32.164,29.181 34.089,31.130C36.022,33.087 37.772,36.852 38.108,39.260C36.290,41.375 33.488,43.951 32.177,45.282C31.538,41.268 30.886,39.066 28.377,36.405C26.304,34.206 22.991,33.831 21.359,33.647M12.249,44.748C13.518,39.499 15.264,36.677 19.664,36.621C25.173,36.551 28.886,41.058 29.202,46.559C29.545,52.515 25.995,57.114 20.177,58.432C13.324,59.986 7.449,53.561 4.555,50.397C6.157,49.375 11.070,49.628 12.249,44.748" fill="#000000" fill-opacity="0.750" stroke="none" stroke-width="1.000"></path></g></svg>